<svg xmlns="http://www.w3.org/2000/svg" viewBox="0 0 128 128"><defs><style>.cls-1{isolation:isolate;}.cls-2{mix-blend-mode:darken;}.cls-3{fill:#83ed8a;}.cls-4{fill:#73d89c;}.cls-5{fill:none;stroke:#fff;stroke-linecap:round;stroke-linejoin:round;stroke-width:2px;}.cls-6{fill:#4d5db1;opacity:0.06;mix-blend-mode:multiply;}</style></defs><title>green-planet</title><g class="cls-1"><g id="icons" class="cls-2"><path class="cls-3" d="M120,64A56,56,0,1,1,64,8,56,56,0,0,1,120,64Z"/><path class="cls-4" d="M47.68,10.42C38.61,21.3,50,28.57,42.38,38.75c-10.12,13.5-22.25,13-33.22,13.91A56.08,56.08,0,0,1,47.68,10.42Z"/><path class="cls-5" d="M51,14.68a50.53,50.53,0,0,0-11,4.27"/><path class="cls-5" d="M18.41,41.14a50.76,50.76,0,0,1,9.53-13.2,52,52,0,0,1,4.55-4"/><path class="cls-4" d="M31.89,63.88C55.88,58.5,55,30.76,60,47.82s1,29.11-18.08,30.11S22.09,66.08,31.89,63.88Z"/><path class="cls-4" d="M69.24,119.73c19.34-33.52,6.52-72.75,50.23-48,.08-.56.15-1.13.2-1.7.11-.92.19-1.85.24-2.78S120,65.08,120,64c0-.67,0-1.34,0-2a55.46,55.46,0,0,0-.85-8c-.18-1-.38-1.92-.61-2.87C104.75,42.27,86.87,42.86,73,70,57,101.31,28.4,86.14,13.17,87.5c.07.17.14.34.22.5a57.28,57.28,0,0,0,3.32,6q1.32,2.07,2.8,4,1.59,2.09,3.37,4a55,55,0,0,0,6.48,6c.88.69,1.78,1.36,2.7,2a56.43,56.43,0,0,0,6.7,4A55.7,55.7,0,0,0,64,120C65.77,120,67.51,119.89,69.24,119.73Z"/><path class="cls-4" d="M114.21,88.78A49.35,49.35,0,0,1,111.29,94q-1.3,2.07-2.79,4-1.59,2.09-3.37,4a55.09,55.09,0,0,1-6.5,6c-.88.7-1.78,1.36-2.7,2-1.14.8-2.32,1.56-3.53,2.27-1,.61-2.09,1.19-3.17,1.73-1.51.76-3.06,1.46-4.64,2.08C92.28,99.26,94.12,78.27,106,81.25,111,82.49,113.32,85.42,114.21,88.78Z"/><path class="cls-4" d="M103.19,24c.71.69,1.41,1.41,2.08,2.14C94.66,29.2,86.63,39.7,77,38,62.46,35.43,73.52,20.43,63.27,8H64a55.84,55.84,0,0,1,20.82,4c1.5.6,3,1.27,4.41,2a53.26,53.26,0,0,1,6.71,4A55.52,55.52,0,0,1,103.19,24Z"/><path class="cls-6" d="M94.78,17.22A56,56,0,0,1,17.22,94.78,56,56,0,1,0,94.78,17.22Z"/><path class="cls-6" d="M99.39,20.61A56,56,0,0,1,20.61,99.39,56,56,0,1,0,99.39,20.61Z"/></g></g></svg>